<?xml version="1.0" ?><!DOCTYPE svg  PUBLIC '-//W3C//DTD SVG 1.1//EN'  'http://www.w3.org/Graphics/SVG/1.1/DTD/svg11.dtd'><svg enable-background="new 0 0 32 32" height="32px" version="1.1" viewBox="0 0 32 32" width="32px" xml:space="preserve" xmlns="http://www.w3.org/2000/svg" xmlns:xlink="http://www.w3.org/1999/xlink"><g id="Guides"/><g id="Mail"/><g id="Cloud"/><g id="Home"/><g id="Back"/><g id="Next"/><g id="Reload"/><g id="Buble"/><g id="Accept"/><g id="Reject"/><g id="User"/><g id="Download"/><g id="Upload"/><g id="Camera"/><g id="Notification"/><g id="About"/><g id="Search"/><g id="Cart"><path d="M27.7627,7.3535C27.5728,7.1289,27.2939,7,27,7H8.5664L7.9663,4.7432C7.8501,4.3047,7.4531,4,7,4H4C3.4478,4,3,4.4473,3,5   s0.4478,1,1,1h2.231l3.8027,14.3047c0.0146,0.0557,0.0459,0.1016,0.0693,0.1523c0.022,0.0479,0.0366,0.1006,0.0659,0.1445   c0.0332,0.0498,0.0791,0.0879,0.1201,0.1309c0.0342,0.0352,0.0625,0.0771,0.1016,0.1074c0.0474,0.0352,0.1025,0.0566,0.1553,0.084   c0.0439,0.0234,0.083,0.0527,0.1299,0.0693C10.7783,21.0283,11,21.0234,11,21.0234V21h14c0.4893,0,0.9063-0.3301,0.9863-0.8125   l2-12.0352C28.0347,7.8623,27.9526,7.5771,27.7627,7.3535z M24.1523,19H11.7817l-1.0078-4h14.0503L24.1523,19z M25.1563,13H10.2759   L9.2798,9h16.5405L25.1563,13z M15,24c0,1.1045-0.8955,2-2,2s-2-0.8955-2-2s0.8955-2,2-2S15,22.8955,15,24z M25,24   c0,1.1045-0.8955,2-2,2s-2-0.8955-2-2s0.8955-2,2-2S25,22.8955,25,24z"/></g><g id="Sound"/><g id="List"/><g id="Settings"/></svg>